# This file uses centimeters as units for non-parametric coordinates.

mtllib start_Bridge_v2.mtl
g default
v -2.760138 0.000000 2.845474
v -1.610778 0.000000 2.772877
v -2.306573 -0.000000 1.078061
v -0.989501 -0.000000 1.289899
v -2.395895 0.000000 -1.106926
v -1.102869 0.000000 -1.435011
v -3.173636 0.000000 -3.411078
v -1.900675 0.000000 -3.809985
v 8.960072 0.000000 3.981107
v 8.876068 0.000000 2.650423
v 6.354131 0.000000 3.967587
v 6.477033 0.000000 2.738874
v 4.187653 0.000000 3.574346
v 4.118490 0.000000 2.431830
v 1.914016 0.000000 3.802169
v 1.836698 0.000000 2.750637
v -0.098472 0.000000 3.806863
v -0.032905 0.000000 2.831071
v -1.995163 0.000000 3.653107
v -2.008930 0.000000 2.751598
v -3.919239 0.000000 3.631159
v -3.967253 0.000000 2.964464
v -5.861959 0.000000 3.647089
v -5.896990 0.000000 3.275400
v -2.760138 0.548150 2.845474
v -1.610778 0.548150 2.772877
v -0.989501 0.548150 1.289899
v -2.306573 0.548150 1.078061
v -1.102869 0.548150 -1.435011
v -2.395895 0.548150 -1.106926
v -1.900675 0.548150 -3.809985
v -3.173636 0.548150 -3.411078
v 8.960072 0.548150 3.981107
v 8.876068 0.548150 2.650423
v 6.477033 0.548150 2.738874
v 6.354131 0.548150 3.967587
v 4.118490 0.548150 2.431830
v 4.187653 0.548150 3.574346
v 1.836698 0.548150 2.750637
v 1.914016 0.548150 3.802169
v -0.032905 0.548150 2.831071
v -0.098472 0.548150 3.806863
v -2.008930 0.548150 2.751598
v -1.995163 0.548150 3.653107
v -3.967253 0.548150 2.964464
v -3.919239 0.548150 3.631159
v -5.896990 0.548150 3.275400
v -5.861959 0.548150 3.647089
vt 0.000000 0.000000
vt 0.228917 0.000000
vt 0.000000 0.207423
vt 0.228917 0.207423
vt 0.000000 0.582685
vt 0.228917 0.582685
vt 0.000000 1.000000
vt 0.228917 1.000000
vt 0.000000 0.000000
vt 0.089634 0.000000
vt 0.089634 0.175188
vt 0.000000 0.175188
vt 0.089634 0.323211
vt 0.000000 0.323211
vt 0.089634 0.476823
vt 0.000000 0.476823
vt 0.089634 0.612115
vt 0.000000 0.612115
vt 0.089634 0.740039
vt 0.000000 0.740039
vt 0.089634 0.869395
vt 0.000000 0.869395
vt 0.089634 1.000000
vt 0.000000 1.000000
vt 0.000000 0.000000
vt 0.228917 0.000000
vt 0.228917 0.207423
vt 0.000000 0.207423
vt 0.228917 0.582685
vt 0.000000 0.582685
vt 0.228917 1.000000
vt 0.000000 1.000000
vt 0.000000 0.000000
vt 0.089634 0.000000
vt 0.089634 0.175188
vt 0.000000 0.175188
vt 0.089634 0.323211
vt 0.000000 0.323211
vt 0.089634 0.476823
vt 0.000000 0.476823
vt 0.089634 0.612115
vt 0.000000 0.612115
vt 0.089634 0.740039
vt 0.000000 0.740039
vt 0.089634 0.869395
vt 0.000000 0.869395
vt 0.089634 1.000000
vt 0.000000 1.000000
vt 0.000000 0.000000
vt 0.228917 0.000000
vt 0.228917 0.207423
vt 0.000000 0.207423
vt 0.228917 0.582685
vt 0.000000 0.582685
vt 0.228917 1.000000
vt 0.000000 1.000000
vt 0.000000 0.000000
vt 0.089634 0.000000
vt 0.089634 0.175188
vt 0.000000 0.175188
vt 0.089634 0.323211
vt 0.000000 0.323211
vt 0.089634 0.476823
vt 0.000000 0.476823
vt 0.089634 0.612115
vt 0.000000 0.612115
vt 0.089634 0.740039
vt 0.000000 0.740039
vt 0.089634 0.869395
vt 0.000000 0.869395
vt 0.089634 1.000000
vt 0.000000 1.000000
vn 0.000000 1.000000 -0.000000
vn 0.000000 1.000000 -0.000000
vn 0.000000 1.000000 0.000000
vn 0.000000 1.000000 0.000000
vn 0.000000 1.000000 0.000000
vn 0.000000 1.000000 0.000000
vn 0.000000 1.000000 0.000000
vn 0.000000 1.000000 0.000000
vn 0.000000 1.000000 0.000000
vn 0.000000 1.000000 0.000000
vn 0.000000 1.000000 -0.000000
vn 0.000000 1.000000 -0.000000
vn 0.000000 1.000000 -0.000000
vn 0.000000 1.000000 -0.000000
vn 0.000000 1.000000 -0.000000
vn 0.000000 1.000000 -0.000000
vn 0.000000 1.000000 0.000000
vn 0.000000 1.000000 0.000000
vn 0.000000 1.000000 0.000000
vn 0.000000 1.000000 0.000000
vn 0.000000 1.000000 -0.000000
vn 0.000000 1.000000 -0.000000
vn 0.000000 1.000000 0.000000
vn 0.000000 1.000000 0.000000
vn -0.000000 -1.000000 0.000000
vn -0.000000 -1.000000 -0.000000
vn -0.000000 -1.000000 -0.000000
vn -0.000000 -1.000000 0.000000
vn -0.000000 -1.000000 -0.000000
vn -0.000000 -1.000000 -0.000000
vn 0.000000 -1.000000 0.000000
vn 0.000000 -1.000000 0.000000
vn 0.000000 -1.000000 0.000000
vn 0.000000 -1.000000 0.000000
vn 0.000000 -1.000000 0.000000
vn 0.000000 -1.000000 0.000000
vn 0.000000 -1.000000 0.000000
vn 0.000000 -1.000000 0.000000
vn 0.000000 -1.000000 0.000000
vn 0.000000 -1.000000 0.000000
vn 0.000000 -1.000000 0.000000
vn 0.000000 -1.000000 0.000000
vn 0.000000 -1.000000 0.000000
vn 0.000000 -1.000000 0.000000
vn 0.000000 -1.000000 0.000000
vn 0.000000 -1.000000 0.000000
vn 0.000000 -1.000000 0.000000
vn 0.000000 -1.000000 0.000000
vn 0.063037 0.000000 0.998011
vn 0.063037 0.000000 0.998011
vn 0.063037 0.000000 0.998011
vn 0.063037 0.000000 0.998011
vn 0.922331 0.000000 0.386401
vn 0.922331 0.000000 0.386401
vn 0.922331 0.000000 0.386401
vn 0.922331 0.000000 0.386401
vn -0.968614 0.000000 -0.248572
vn -0.968614 0.000000 -0.248572
vn -0.968614 0.000000 -0.248572
vn -0.968614 0.000000 -0.248572
vn 0.999136 0.000000 -0.041569
vn 0.999136 0.000000 -0.041569
vn 0.999136 0.000000 -0.041569
vn 0.999136 0.000000 -0.041569
vn -0.999166 0.000000 0.040846
vn -0.999166 0.000000 0.040846
vn -0.999166 0.000000 0.040846
vn -0.999166 0.000000 0.040846
vn 0.947945 0.000000 -0.318435
vn 0.947945 0.000000 -0.318435
vn 0.947945 0.000000 -0.318435
vn 0.947945 0.000000 -0.318435
vn -0.299031 0.000000 -0.954244
vn -0.299031 0.000000 -0.954244
vn -0.299031 0.000000 -0.954244
vn -0.299031 0.000000 -0.954244
vn -0.947481 0.000000 0.319812
vn -0.947481 0.000000 0.319812
vn -0.947481 0.000000 0.319812
vn -0.947481 0.000000 0.319812
vn 0.998013 0.000000 -0.063003
vn 0.998013 0.000000 -0.063003
vn 0.998013 0.000000 -0.063003
vn 0.998013 0.000000 -0.063003
vn -0.036845 0.000000 -0.999321
vn -0.036845 0.000000 -0.999321
vn -0.036845 0.000000 -0.999321
vn -0.036845 0.000000 -0.999321
vn -0.005188 0.000000 0.999987
vn -0.005188 0.000000 0.999987
vn -0.005188 0.000000 0.999987
vn -0.005188 0.000000 0.999987
vn 0.129095 0.000000 -0.991632
vn 0.129095 0.000000 -0.991632
vn 0.129095 0.000000 -0.991632
vn 0.129095 0.000000 -0.991632
vn -0.178593 0.000000 0.983923
vn -0.178593 0.000000 0.983923
vn -0.178593 0.000000 0.983923
vn -0.178593 0.000000 0.983923
vn -0.138374 0.000000 -0.990380
vn -0.138374 0.000000 -0.990380
vn -0.138374 0.000000 -0.990380
vn -0.138374 0.000000 -0.990380
vn 0.099703 0.000000 0.995017
vn 0.099703 0.000000 0.995017
vn 0.099703 0.000000 0.995017
vn 0.099703 0.000000 0.995017
vn -0.042982 0.000000 -0.999076
vn -0.042982 0.000000 -0.999076
vn -0.042982 0.000000 -0.999076
vn -0.042982 0.000000 -0.999076
vn 0.002332 0.000000 0.999997
vn 0.002332 0.000000 0.999997
vn 0.002332 0.000000 0.999997
vn 0.002332 0.000000 0.999997
vn 0.040186 0.000000 -0.999192
vn 0.040186 0.000000 -0.999192
vn 0.040186 0.000000 -0.999192
vn 0.040186 0.000000 -0.999192
vn -0.080800 0.000000 0.996730
vn -0.080800 0.000000 0.996730
vn -0.080800 0.000000 0.996730
vn -0.080800 0.000000 0.996730
vn -0.108062 0.000000 -0.994144
vn -0.108062 0.000000 -0.994144
vn -0.108062 0.000000 -0.994144
vn -0.108062 0.000000 -0.994144
vn -0.011406 0.000000 0.999935
vn -0.011406 0.000000 0.999935
vn -0.011406 0.000000 0.999935
vn -0.011406 0.000000 0.999935
vn -0.159077 0.000000 -0.987266
vn -0.159077 0.000000 -0.987266
vn -0.159077 0.000000 -0.987266
vn -0.159077 0.000000 -0.987266
vn -0.995588 0.000000 0.093832
vn -0.995588 0.000000 0.093832
vn -0.995588 0.000000 0.093832
vn -0.995588 0.000000 0.093832
vn 0.008200 0.000000 0.999966
vn 0.008200 0.000000 0.999966
vn 0.008200 0.000000 0.999966
vn 0.008200 0.000000 0.999966
s 1
g sweep3
usemtl initialShadingGroup
f 25/49/1 26/50/2 27/51/3 28/52/4
f 28/52/4 27/51/3 29/53/5 30/54/6
f 30/54/6 29/53/5 31/55/7 32/56/8
s 2
f 33/57/9 34/58/10 35/59/11 36/60/12
f 36/60/12 35/59/11 37/61/13 38/62/14
f 38/62/14 37/61/13 39/63/15 40/64/16
f 40/64/16 39/63/15 41/65/17 42/66/18
f 42/66/18 41/65/17 43/67/19 44/68/20
f 44/68/20 43/67/19 45/69/21 46/70/22
f 46/70/22 45/69/21 47/71/23 48/72/24
s 3
f 1/25/25 3/28/26 4/27/27 2/26/28
f 3/28/26 5/30/29 6/29/30 4/27/27
f 5/30/29 7/32/31 8/31/32 6/29/30
s 4
f 9/33/33 11/36/34 12/35/35 10/34/36
f 11/36/34 13/38/37 14/37/38 12/35/35
f 13/38/37 15/40/39 16/39/40 14/37/38
f 15/40/39 17/42/41 18/41/42 16/39/40
f 17/42/41 19/44/43 20/43/44 18/41/42
f 19/44/43 21/46/45 22/45/46 20/43/44
f 21/46/45 23/48/47 24/47/48 22/45/46
s off
f 1/1/49 2/2/50 26/50/51 25/49/52
f 2/2/53 4/4/54 27/51/55 26/50/56
f 3/3/57 1/1/58 25/49/59 28/52/60
f 4/4/61 6/6/62 29/53/63 27/51/64
f 5/5/65 3/3/66 28/52/67 30/54/68
f 6/6/69 8/8/70 31/55/71 29/53/72
f 8/8/73 7/7/74 32/56/75 31/55/76
f 7/7/77 5/5/78 30/54/79 32/56/80
f 9/9/81 10/10/82 34/58/83 33/57/84
f 10/10/85 12/11/86 35/59/87 34/58/88
f 11/12/89 9/9/90 33/57/91 36/60/92
f 12/11/93 14/13/94 37/61/95 35/59/96
f 13/14/97 11/12/98 36/60/99 38/62/100
f 14/13/101 16/15/102 39/63/103 37/61/104
f 15/16/105 13/14/106 38/62/107 40/64/108
f 16/15/109 18/17/110 41/65/111 39/63/112
f 17/18/113 15/16/114 40/64/115 42/66/116
f 18/17/117 20/19/118 43/67/119 41/65/120
f 19/20/121 17/18/122 42/66/123 44/68/124
f 20/19/125 22/21/126 45/69/127 43/67/128
f 21/22/129 19/20/130 44/68/131 46/70/132
f 22/21/133 24/23/134 47/71/135 45/69/136
f 24/23/137 23/24/138 48/72/139 47/71/140
f 23/24/141 21/22/142 46/70/143 48/72/144
