# This file uses centimeters as units for non-parametric coordinates.

mtllib start_Bridge_v1.mtl
g default
v -2.760138 0.000000 2.845474
v -1.610778 0.000000 2.772877
v -2.306573 -0.000000 1.078061
v -0.989501 -0.000000 1.289899
v -2.395895 0.000000 -1.106926
v -1.102869 0.000000 -1.435011
v -3.173636 0.000000 -3.411078
v -1.900675 0.000000 -3.809985
v 8.960072 0.000000 3.981107
v 8.876068 0.000000 2.650423
v 6.354131 0.000000 3.967587
v 6.477033 0.000000 2.738874
v 4.187653 0.000000 3.574346
v 4.118490 0.000000 2.431830
v 1.914016 0.000000 3.802169
v 1.836698 0.000000 2.750637
v -0.098472 0.000000 3.806863
v -0.032905 0.000000 2.831071
v -1.995163 0.000000 3.653107
v -2.008930 0.000000 2.751598
v -3.919239 0.000000 3.631159
v -3.967253 0.000000 2.964464
v -5.861959 0.000000 3.647089
v -5.896990 0.000000 3.275400
vt 0.000000 0.000000
vt 0.228917 0.000000
vt 0.000000 0.207423
vt 0.228917 0.207423
vt 0.000000 0.582685
vt 0.228917 0.582685
vt 0.000000 1.000000
vt 0.228917 1.000000
vt 0.000000 0.000000
vt 0.089634 0.000000
vt 0.089634 0.175188
vt 0.000000 0.175188
vt 0.089634 0.323211
vt 0.000000 0.323211
vt 0.089634 0.476823
vt 0.000000 0.476823
vt 0.089634 0.612115
vt 0.000000 0.612115
vt 0.089634 0.740039
vt 0.000000 0.740039
vt 0.089634 0.869395
vt 0.000000 0.869395
vt 0.089634 1.000000
vt 0.000000 1.000000
vn 0.000000 1.000000 -0.000000
vn 0.000000 1.000000 -0.000000
vn 0.000000 1.000000 0.000000
vn 0.000000 1.000000 0.000000
vn 0.000000 1.000000 0.000000
vn 0.000000 1.000000 0.000000
vn 0.000000 1.000000 0.000000
vn 0.000000 1.000000 0.000000
vn 0.000000 1.000000 0.000000
vn 0.000000 1.000000 0.000000
vn 0.000000 1.000000 0.000000
vn 0.000000 1.000000 0.000000
vn 0.000000 1.000000 0.000000
vn 0.000000 1.000000 0.000000
vn 0.000000 1.000000 0.000000
vn 0.000000 1.000000 0.000000
vn 0.000000 1.000000 0.000000
vn 0.000000 1.000000 0.000000
vn 0.000000 1.000000 0.000000
vn 0.000000 1.000000 0.000000
vn 0.000000 1.000000 0.000000
vn 0.000000 1.000000 0.000000
vn 0.000000 1.000000 0.000000
vn 0.000000 1.000000 0.000000
s 1
g sweep3
usemtl initialShadingGroup
f 1/1/1 2/2/2 4/4/3 3/3/4
f 3/3/4 4/4/3 6/6/5 5/5/6
f 5/5/6 6/6/5 8/8/7 7/7/8
s 2
f 9/9/9 10/10/10 12/11/11 11/12/12
f 11/12/12 12/11/11 14/13/13 13/14/14
f 13/14/14 14/13/13 16/15/15 15/16/16
f 15/16/16 16/15/15 18/17/17 17/18/18
f 17/18/18 18/17/17 20/19/19 19/20/20
f 19/20/20 20/19/19 22/21/21 21/22/22
f 21/22/22 22/21/21 24/23/23 23/24/24
